<svg id="Lag_1" data-name="Lag 1" xmlns="http://www.w3.org/2000/svg" viewBox="0 0 800 450"><defs><style>.cls-1{fill:#a8afbf;}.cls-2{fill:none;stroke:#737985;stroke-miterlimit:10;stroke-width:6px;}.cls-3{fill:#737985;}</style></defs><rect class="cls-1" width="800" height="450"/><rect class="cls-2" x="256.69" y="126.82" width="286.62" height="196.36" rx="3.83"/><path class="cls-3" d="M268.52,314.84H528.78a2.69,2.69,0,0,0,2.71-2.67V254a2.65,2.65,0,0,0-.78-1.88l-45-44.94a2.74,2.74,0,0,0-3.72-.14l-43,37a2.74,2.74,0,0,1-3.71-.12l-80.46-79.14a2.75,2.75,0,0,0-3.84,0l-84,82.65a2.66,2.66,0,0,0-.79,1.88l-.35,62.81A2.7,2.7,0,0,0,268.52,314.84Z"/><circle class="cls-3" cx="491.88" cy="159.92" r="17.76"/></svg>